<svg version="1.1" viewBox="0.0 0.0 256.0 256.0" fill="none" stroke="none" stroke-linecap="square" stroke-miterlimit="10" xmlns:xlink="http://www.w3.org/1999/xlink" xmlns="http://www.w3.org/2000/svg"><clipPath id="p.0"><path d="m0 0l256.0 0l0 256.0l-256.0 0l0 -256.0z" clip-rule="nonzero"/></clipPath><g clip-path="url(#p.0)"><path fill="#000000" fill-opacity="0.0" d="m0 0l256.0 0l0 256.0l-256.0 0z" fill-rule="evenodd"/><path fill="#6d9eeb" d="m5.2712793 233.83954l157.10197 -150.23984l10.020554 10.020554l-150.23984 157.10199z" fill-rule="evenodd"/><path fill="#6d9eeb" d="m178.5787 99.80517l-22.382355 -22.382362c-0.6656952 -0.6657028 -1.0396881 -1.5685806 -1.0396881 -2.510025c0 -0.9414444 0.37399292 -1.8443222 1.0396881 -2.510025l2.510025 -2.5100174c1.2207031E-4 -1.296997E-4 3.2043457E-4 -1.296997E-4 4.5776367E-4 0l27.401947 27.402405l0 0c1.2207031E-4 1.296997E-4 1.2207031E-4 3.2806396E-4 0 4.5776367E-4l-2.510025 2.5095673l0 0c-1.3862457 1.3862457 -3.6338043 1.3862457 -5.02005 0z" fill-rule="evenodd"/><path fill="#6d9eeb" d="m230.45915 1.8676753l0 0l0 0c0.496109 0.49609447 0.7748108 1.1689427 0.7748108 1.8705261c0 0.70158315 -0.27870178 1.3744314 -0.7748108 1.8705261l-68.02638 68.0264c-1.5258789E-5 1.5258789E-5 -4.5776367E-5 1.5258789E-5 -6.1035156E-5 0l-3.7409973 -3.7410583l0 0c-1.5258789E-5 -1.5258789E-5 -1.5258789E-5 -3.8146973E-5 0 -6.1035156E-5l68.0264 -68.02633l0 0c1.0330658 -1.0330629 2.7079926 -1.0330629 3.741043 0z" fill-rule="evenodd"/><path fill="#6d9eeb" d="m254.1127 25.521217l0 0l0 0c0.49609375 0.49609375 0.77479553 1.1689415 0.77479553 1.8705254c0 0.70158386 -0.27870178 1.3744316 -0.77479553 1.8705273l-68.0264 68.0264c-1.5258789E-5 1.5258789E-5 -4.5776367E-5 1.5258789E-5 -6.1035156E-5 0l-3.740982 -3.7410583l0 0c-1.5258789E-5 -1.5258789E-5 -1.5258789E-5 -3.8146973E-5 0 -6.1035156E-5l68.02638 -68.02633l0 0c1.0330658 -1.0330639 2.7079926 -1.0330639 3.7410583 0z" fill-rule="evenodd"/><path fill="#6d9eeb" d="m246.426 17.834505l0 0l0 0c0.49609375 0.49609375 0.77479553 1.1689415 0.77479553 1.8705254c0 0.70158386 -0.27870178 1.3744316 -0.77479553 1.8705273l-68.0264 68.0264c-1.5258789E-5 1.5258789E-5 -4.5776367E-5 1.5258789E-5 -6.1035156E-5 0l-3.7409973 -3.7410507l0 0c-1.5258789E-5 -2.2888184E-5 -1.5258789E-5 -4.5776367E-5 0 -6.1035156E-5l68.0264 -68.02634l0 0c1.0330658 -1.0330639 2.7079926 -1.0330639 3.7410583 0z" fill-rule="evenodd"/><path fill="#6d9eeb" d="m238.44995 9.85846l0 0l0 0c0.49609375 0.49609375 0.77479553 1.1689425 0.77479553 1.8705254c0 0.70158386 -0.27870178 1.3744316 -0.77479553 1.8705263l-68.0264 68.0264c-1.5258789E-5 1.5258789E-5 -4.5776367E-5 1.5258789E-5 -6.1035156E-5 0l-3.7409973 -3.7410507l0 0c-1.5258789E-5 -2.2888184E-5 -1.5258789E-5 -4.5776367E-5 0 -6.866455E-5l68.0264 -68.02633l0 0c1.0330658 -1.0330629 2.7079926 -1.0330629 3.7410583 0z" fill-rule="evenodd"/><path fill="#a4c2f4" d="m237.281 247.30058l-157.56207 -164.42421l10.020554 -10.020554l164.4242 157.56206z" fill-rule="evenodd"/><path fill="#a4c2f4" d="m123.76246 105.06333l-100.7153 -100.7153l-1.5987396 8.452007l0.45830536 10.9620285l4.1114273 10.048082l3.65312 8.6784935l6.850601 13.2455635l7.079754 11.188515l13.2455635 13.703865l46.3608 44.99122z" fill-rule="evenodd"/></g></svg>