<svg version="1.1" viewBox="0.0 0.0 256.0 256.0" fill="none" stroke="none" stroke-linecap="square" stroke-miterlimit="10" xmlns:xlink="http://www.w3.org/1999/xlink" xmlns="http://www.w3.org/2000/svg"><clipPath id="p.0"><path d="m0 0l256.0 0l0 256.0l-256.0 0l0 -256.0z" clip-rule="nonzero"/></clipPath><g clip-path="url(#p.0)"><path fill="#000000" fill-opacity="0.0" d="m0 0l256.0 0l0 256.0l-256.0 0z" fill-rule="evenodd"/><path fill="#6d9eeb" d="m9.969812 214.09651l143.7366 -130.7579l18.952393 18.952393l-130.75789 143.7366z" fill-rule="evenodd"/><path fill="#6d9eeb" d="m186.86221 116.4944l-47.34407 -47.344055c-0.59454346 -0.5945587 -0.92855835 -1.40094 -0.92855835 -2.241768c0 -0.8408203 0.3340149 -1.6472092 0.92855835 -2.2417603l2.2417755 -2.2417603c2.2888184E-4 -2.4032593E-4 6.2561035E-4 -2.4032593E-4 8.544922E-4 0l51.82672 51.827583l0 0c2.4414062E-4 2.3651123E-4 2.4414062E-4 6.2561035E-4 0 8.621216E-4l-2.2417603 2.2408981l0 0c-1.2380981 1.2380905 -3.2454376 1.2380905 -4.4835205 0z" fill-rule="evenodd"/><path fill="#6d9eeb" d="m207.70465 3.5307658l0 0l0 0c0.93829346 0.9382889 1.4654083 2.2108815 1.4654083 3.537822c0 1.326941 -0.52711487 2.5995336 -1.4654083 3.5378222l-58.88884 58.88883c-3.0517578E-5 3.0517578E-5 -7.6293945E-5 3.0517578E-5 -1.0681152E-4 0l-7.075531 -7.0756416l0 0c-3.0517578E-5 -3.4332275E-5 -3.0517578E-5 -8.773804E-5 0 -1.18255615E-4l58.888824 -58.888714l0 0c1.9538879 -1.9538851 5.121765 -1.9538851 7.075653 0z" fill-rule="evenodd"/><path fill="#6d9eeb" d="m252.4418 48.267925l0 0l0 0c0.93829346 0.93828964 1.4654236 2.210884 1.4654236 3.5378227c0 1.3269424 -0.5271301 2.599533 -1.4654236 3.5378227l-58.888824 58.88883c-3.0517578E-5 3.0517578E-5 -9.1552734E-5 3.0517578E-5 -1.2207031E-4 0l-7.0755157 -7.0756454l0 0c-4.5776367E-5 -3.0517578E-5 -4.5776367E-5 -8.392334E-5 0 -1.1444092E-4l58.888824 -58.888714l0 0c1.9538879 -1.9538841 5.121765 -1.9538841 7.075638 0z" fill-rule="evenodd"/><path fill="#6d9eeb" d="m237.90353 33.729652l0 0l0 0c0.93829346 0.93828964 1.4654083 2.2108803 1.4654083 3.5378227c0 1.3269386 -0.52711487 2.599533 -1.4654083 3.5378227l-58.888824 58.888832c-3.0517578E-5 3.0517578E-5 -9.1552734E-5 3.0517578E-5 -1.2207031E-4 0l-7.075531 -7.0756454l0 0c-3.0517578E-5 -3.8146973E-5 -3.0517578E-5 -9.1552734E-5 0 -1.2207031E-4l58.88884 -58.88871l0 0c1.9538727 -1.953886 5.12175 -1.953886 7.075638 0z" fill-rule="evenodd"/><path fill="#6d9eeb" d="m222.81802 18.644148l0 0l0 0c0.93829346 0.93828964 1.4654236 2.2108822 1.4654236 3.5378227c0 1.3269405 -0.5271301 2.599533 -1.4654236 3.5378208l-58.888824 58.88883c-3.0517578E-5 3.8146973E-5 -9.1552734E-5 3.8146973E-5 -1.2207031E-4 0l-7.0755157 -7.075638l0 0c-3.0517578E-5 -3.8146973E-5 -3.0517578E-5 -9.1552734E-5 0 -1.2207031E-4l58.888824 -58.88871l0 0c1.9538879 -1.9538841 5.121765 -1.9538841 7.075638 0z" fill-rule="evenodd"/><path fill="#a4c2f4" d="m220.88171 239.25528l-137.49019 -150.08362l18.38977 -18.38977l150.08363 137.4902z" fill-rule="evenodd"/><path fill="#a4c2f4" d="m133.0232 98.69205l-89.95131 -89.9513l-6.162178 12.283l-4.538353 14.738132l0.87561417 11.770588l0.89553833 10.11813l3.1061592 14.842224l4.3877068 11.928123l11.614056 12.455147l42.0511 39.53762z" fill-rule="evenodd"/></g></svg>