<svg version="1.1" viewBox="0.0 0.0 256.0 256.0" fill="none" stroke="none" stroke-linecap="square" stroke-miterlimit="10" xmlns:xlink="http://www.w3.org/1999/xlink" xmlns="http://www.w3.org/2000/svg"><clipPath id="p.0"><path d="m0 0l256.0 0l0 256.0l-256.0 0l0 -256.0z" clip-rule="nonzero"/></clipPath><g clip-path="url(#p.0)"><path fill="#000000" fill-opacity="0.0" d="m0 0l256.0 0l0 256.0l-256.0 0z" fill-rule="evenodd"/><path fill="#ffd966" d="m-0.002624672 127.997375l0 0c0 -70.692444 57.307552 -128.0 128.0 -128.0l0 0c33.94771 0 66.505005 13.485676 90.509674 37.490334c24.004654 24.004654 37.490326 56.56196 37.490326 90.50967l0 0c0 70.692444 -57.307556 128.0 -128.0 128.0l0 0c-70.692444 0 -128.0 -57.307556 -128.0 -128.0z" fill-rule="evenodd"/><path fill="#ffffff" d="m116.405304 91.301956l1.0829315 21.239418c-5.0070877 -1.0014267 -8.977829 -2.3987503 -11.912216 -4.1919937c-2.9343872 -1.7932358 -4.401573 -4.5529633 -4.401573 -8.279182c0 -2.8412323 1.3623886 -5.0070953 4.087181 -6.4975815c2.7247849 -1.513771 5.938637 -2.2706604 9.641548 -2.2706604zm22.112701 53.86708c4.8673553 1.2808838 8.581909 2.7830048 11.143677 4.5063934c2.5850525 1.7000732 3.8775787 3.9823914 3.8775787 6.8469086c0 3.3070068 -1.3274536 5.635895 -3.982376 6.9866486c-2.6316376 1.3507538 -5.950287 2.1076355 -9.955948 2.2706757l-1.0829315 -20.610626zm-24.453224 -99.80431l0.62879944 12.226639c-16.162415 1.2808838 -28.901375 5.251629 -38.21689 11.912239c-9.292229 6.660614 -13.938335 16.069298 -13.938335 28.226074c0 12.017036 4.075535 21.146255 12.226612 27.387672c8.174362 6.2181168 21.2743 11.178642 39.299812 14.881569c1.1411514 0.30274963 2.3521652 0.5240021 3.633049 0.6637268l-1.2925262 23.614883c-7.871605 -1.164444 -15.31237 -2.92276 -22.322296 -5.2749176c-7.009918 -2.352188 -14.019844 -5.3913727 -21.02977 -9.117584l-10.514881 31.963928c2.445324 2.4453278 6.4160576 4.855728 11.912212 7.231186c5.5194397 2.3521729 11.784119 4.4248962 18.794044 6.2181244c7.009926 1.7699432 14.159576 3.0857544 21.448967 3.9474487l-0.62879944 11.388245l27.87667 0l-0.62879944 -11.388245c17.024109 -1.2808838 29.972672 -5.356415 38.845688 -12.226639c8.873032 -6.8701935 13.30954 -16.383698 13.30954 -28.540466c0 -9.012787 -2.2240753 -16.313828 -6.672241 -21.903152c-4.4248657 -5.589325 -10.503235 -9.955978 -18.235107 -13.099976c-7.7085876 -3.1439896 -16.58162 -5.5078125 -26.61908 -7.091446c-1.1411438 -0.13973236 -2.3521576 -0.34933472 -3.6330414 -0.62879944l1.2925262 -23.195686c9.152481 1.0014267 16.663116 2.328888 22.53189 3.9823914c5.8687744 1.653511 10.445023 3.0508347 13.728729 4.1919937l8.593567 -32.41806c-2.7247925 -1.5603561 -7.3476105 -3.5166168 -13.868469 -5.8687897c-6.497574 -2.3754616 -16.25557 -3.9940376 -29.274002 -4.8557205l0.62879944 -12.226639z" fill-rule="evenodd"/></g></svg>