<svg version="1.1" viewBox="0.0 0.0 256.0 256.0" fill="none" stroke="none" stroke-linecap="square" stroke-miterlimit="10" xmlns:xlink="http://www.w3.org/1999/xlink" xmlns="http://www.w3.org/2000/svg"><clipPath id="p.0"><path d="m0 0l256.0 0l0 256.0l-256.0 0l0 -256.0z" clip-rule="nonzero"/></clipPath><g clip-path="url(#p.0)"><path fill="#000000" fill-opacity="0.0" d="m0 0l256.0 0l0 256.0l-256.0 0z" fill-rule="evenodd"/><defs><radialGradient id="p.1" gradientUnits="userSpaceOnUse" gradientTransform="matrix(13.269158943514148 0.0 0.0 13.269158943514148 0.0 0.0)" spreadMethod="pad" cx="9.307395657983614" cy="9.834835844195483" fx="9.307395657983614" fy="9.834835844195483" r="13.269159317016602"><stop offset="0.0" stop-color="#bfbfbf"/><stop offset="1.0" stop-color="#737373"/></radialGradient></defs><path fill="url(#p.1)" d="m25.598425 93.125984l40.76378 -18.215225l3.1496048 -60.06299l70.186356 20.921259l20.099731 -30.761154l31.640427 16.139109l22.257217 31.469816l24.307083 47.93963l9.0 71.761154l-32.233597 53.608932l-45.0 30.065613l-58.745407 -11.2729645l-49.31496 9.603668l-34.761154 -35.078735l-26.947506 -58.46457l25.598425 -68.07086" fill-rule="evenodd"/><path stroke="#000000" stroke-width="1.0" stroke-linejoin="round" stroke-linecap="butt" d="m25.598425 93.125984l40.76378 -18.215225l3.1496048 -60.06299l70.186356 20.921259l20.099731 -30.761154l31.640427 16.139109l22.257217 31.469816l24.307083 47.93963l9.0 71.761154l-32.233597 53.608932l-45.0 30.065613l-58.745407 -11.2729645l-49.31496 9.603668l-34.761154 -35.078735l-26.947506 -58.46457l25.598425 -68.07086" fill-rule="evenodd"/><defs><radialGradient id="p.2" gradientUnits="userSpaceOnUse" gradientTransform="matrix(5.977616926288776 0.0 0.0 5.977616926288776 0.0 0.0)" spreadMethod="pad" cx="4.610155371609193" cy="7.05628857559365" fx="4.610155371609193" fy="7.05628857559365" r="5.977616786956787"><stop offset="0.0" stop-color="#bfbfbf"/><stop offset="1.0" stop-color="#737373"/></radialGradient></defs><path fill="url(#p.2)" d="m45.666668 56.687664l0.9002609 -40.26509l-27.446194 -4.4986887l-10.572179 24.29396l17.771652 36.217846z" fill-rule="evenodd"/><path stroke="#000000" stroke-width="1.0" stroke-linejoin="round" stroke-linecap="butt" d="m45.666668 56.687664l0.9002609 -40.26509l-27.446194 -4.4986887l-10.572179 24.29396l17.771652 36.217846z" fill-rule="evenodd"/></g></svg>