<svg version="1.1" viewBox="0.0 0.0 100.0 100.0" fill="none" stroke="none" stroke-linecap="square" stroke-miterlimit="10" xmlns:xlink="http://www.w3.org/1999/xlink" xmlns="http://www.w3.org/2000/svg"><clipPath id="p.0"><path d="m0 0l100.0 0l0 100.0l-100.0 0l0 -100.0z" clip-rule="nonzero"/></clipPath><g clip-path="url(#p.0)"><path fill="#000000" fill-opacity="0.0" d="m0 0l100.0 0l0 100.0l-100.0 0z" fill-rule="evenodd"/><path fill="#b7b7b7" d="m0 16.672249l0 0c0 -9.2078285 7.4644203 -16.672249 16.672249 -16.672249l66.687 0l0 0c4.4217606 0 8.662407 1.7565355 11.7890625 4.8831887c3.1266556 3.1266532 4.8831863 7.3673053 4.8831863 11.789061l0 66.687c0 9.207832 -7.4644165 16.672249 -16.672249 16.672249l-66.687 0c-9.2078285 0 -16.672249 -7.4644165 -16.672249 -16.672249z" fill-rule="evenodd"/><path fill="#ffffff" d="m50.0 10.742783l29.763779 29.763779l-19.84232 0l-9.921459 -9.921457l-9.921459 9.921457l-19.84232 0z" fill-rule="evenodd"/><path stroke="#999999" stroke-width="1.0" stroke-linejoin="round" stroke-linecap="butt" d="m50.0 10.742783l29.763779 29.763779l-19.84232 0l-9.921459 -9.921457l-9.921459 9.921457l-19.84232 0z" fill-rule="evenodd"/><path fill="#ffffff" d="m50.0 34.742783l29.763779 29.763779l-19.84232 0l-9.921459 -9.921459l-9.921459 9.921459l-19.84232 0z" fill-rule="evenodd"/><path stroke="#999999" stroke-width="1.0" stroke-linejoin="round" stroke-linecap="butt" d="m50.0 34.742783l29.763779 29.763779l-19.84232 0l-9.921459 -9.921459l-9.921459 9.921459l-19.84232 0z" fill-rule="evenodd"/><path fill="#ffffff" d="m50.0 58.742783l29.763779 29.763779l-19.84232 0l-9.921459 -9.921455l-9.921459 9.921455l-19.84232 0z" fill-rule="evenodd"/><path stroke="#999999" stroke-width="1.0" stroke-linejoin="round" stroke-linecap="butt" d="m50.0 58.742783l29.763779 29.763779l-19.84232 0l-9.921459 -9.921455l-9.921459 9.921455l-19.84232 0z" fill-rule="evenodd"/></g></svg>