<svg version="1.1" viewBox="0.0 0.0 256.0 256.0" fill="none" stroke="none" stroke-linecap="square" stroke-miterlimit="10" xmlns:xlink="http://www.w3.org/1999/xlink" xmlns="http://www.w3.org/2000/svg"><clipPath id="p.0"><path d="m0 0l256.0 0l0 256.0l-256.0 0l0 -256.0z" clip-rule="nonzero"/></clipPath><g clip-path="url(#p.0)"><path fill="#000000" fill-opacity="0.0" d="m0 0l256.0 0l0 256.0l-256.0 0z" fill-rule="evenodd"/><path fill="#5e4c38" d="m145.54593 4.4986877l20.921265 10.572179l10.123352 0.22572136l26.32022 8.774278l4.9474945 6.7480316l10.349091 17.545933l5.847763 8.774277l10.349091 15.522308l12.598419 21.370079l6.5223083 8.099739l2.026245 3.5984268l-0.9002533 19.795273l-0.45144653 9.674545l-0.89764404 11.246719l-0.6771698 11.023621l0.90026855 8.9973755l1.3490753 5.6246643l-8.771652 13.2729645l-5.173218 6.5223236l-8.32547 11.698151l-14.62204 14.173233l-7.871399 9.897644l-0.9002533 5.398941l-9.448822 7.1968536l-17.545929 2.9265137l-20.020996 1.5747986l-17.771652 7.8713837l-5.850403 2.7007904l-16.871384 -1.3490753l-20.921265 -2.9265137l-14.396324 -13.27034l-27.44357 -1.3516998l-15.07349 -6.0735016l-13.947508 -21.370071l-2.2493439 -13.2729645l-10.12336 -11.921265l-9.671915 -10.797897l-5.39895 -16.6483l-1.1259843 -23.170593l2.9238844 -16.645676l-0.44881892 -11.698158l-1.800525 -9.223099l0 -9.671921l7.648294 -12.149605l9.223098 -11.921257l4.275589 -5.3989525l6.2992134 -9.223095l1.5748024 -5.1758537l16.64567 -28.569553l13.498688 4.0498676l13.721783 -2.9238834l13.047249 -8.322835l5.624672 -2.4750655l8.32283 -0.67454076z" fill-rule="evenodd"/><path stroke="#000000" stroke-width="1.0" stroke-linejoin="round" stroke-linecap="butt" d="m145.54593 4.4986877l20.921265 10.572179l10.123352 0.22572136l26.32022 8.774278l4.9474945 6.7480316l10.349091 17.545933l5.847763 8.774277l10.349091 15.522308l12.598419 21.370079l6.5223083 8.099739l2.026245 3.5984268l-0.9002533 19.795273l-0.45144653 9.674545l-0.89764404 11.246719l-0.6771698 11.023621l0.90026855 8.9973755l1.3490753 5.6246643l-8.771652 13.2729645l-5.173218 6.5223236l-8.32547 11.698151l-14.62204 14.173233l-7.871399 9.897644l-0.9002533 5.398941l-9.448822 7.1968536l-17.545929 2.9265137l-20.020996 1.5747986l-17.771652 7.8713837l-5.850403 2.7007904l-16.871384 -1.3490753l-20.921265 -2.9265137l-14.396324 -13.27034l-27.44357 -1.3516998l-15.07349 -6.0735016l-13.947508 -21.370071l-2.2493439 -13.2729645l-10.12336 -11.921265l-9.671915 -10.797897l-5.39895 -16.6483l-1.1259843 -23.170593l2.9238844 -16.645676l-0.44881892 -11.698158l-1.800525 -9.223099l0 -9.671921l7.648294 -12.149605l9.223098 -11.921257l4.275589 -5.3989525l6.2992134 -9.223095l1.5748024 -5.1758537l16.64567 -28.569553l13.498688 4.0498676l13.721783 -2.9238834l13.047249 -8.322835l5.624672 -2.4750655l8.32283 -0.67454076z" fill-rule="evenodd"/><path fill="#9d7344" d="m9.443569 127.99475l0 0c0 -65.474014 53.07717 -118.55118 118.55118 -118.55118l0 0c31.441727 0 61.595688 12.490179 83.82834 34.722836c22.232666 22.232658 34.72284 52.38662 34.72284 83.82835l0 0c0 65.474014 -53.077164 118.55118 -118.55118 118.55118l0 0c-65.474014 0 -118.55118 -53.077164 -118.55118 -118.55118z" fill-rule="evenodd"/><path stroke="#000000" stroke-width="1.0" stroke-linejoin="round" stroke-linecap="butt" d="m9.443569 127.99475l0 0c0 -65.474014 53.07717 -118.55118 118.55118 -118.55118l0 0c31.441727 0 61.595688 12.490179 83.82834 34.722836c22.232666 22.232658 34.72284 52.38662 34.72284 83.82835l0 0c0 65.474014 -53.077164 118.55118 -118.55118 118.55118l0 0c-65.474014 0 -118.55118 -53.077164 -118.55118 -118.55118z" fill-rule="evenodd"/><path fill="#ffffff" fill-opacity="0.0409" d="m18.228254 127.99213l0 0c0 -60.873085 49.34738 -110.220474 110.220474 -110.220474l0 0c29.232285 0 57.26729 11.61248 77.93764 32.28283c20.67035 20.67035 32.282837 48.70536 32.282837 77.937645l0 0c0 60.873093 -49.347397 110.220474 -110.220474 110.220474l0 0c-60.873093 0 -110.220474 -49.34738 -110.220474 -110.220474z" fill-rule="evenodd"/><path stroke="#000000" stroke-width="1.0" stroke-linejoin="round" stroke-linecap="butt" d="m18.228254 127.99213l0 0c0 -60.873085 49.34738 -110.220474 110.220474 -110.220474l0 0c29.232285 0 57.26729 11.61248 77.93764 32.28283c20.67035 20.67035 32.282837 48.70536 32.282837 77.937645l0 0c0 60.873093 -49.347397 110.220474 -110.220474 110.220474l0 0c-60.873093 0 -110.220474 -49.34738 -110.220474 -110.220474z" fill-rule="evenodd"/><path fill="#ffffff" fill-opacity="0.0409" d="m23.619417 128.00525l0 0c0 -57.898575 46.936073 -104.83465 104.834656 -104.83465l0 0c27.803864 0 54.46898 11.04505 74.12929 30.705359c19.660309 19.660309 30.705353 46.32541 30.705353 74.12929l0 0c0 57.898575 -46.936066 104.83464 -104.83464 104.83464l0 0c-57.898582 0 -104.834656 -46.936066 -104.834656 -104.83464z" fill-rule="evenodd"/><path stroke="#000000" stroke-width="1.0" stroke-linejoin="round" stroke-linecap="butt" d="m23.619417 128.00525l0 0c0 -57.898575 46.936073 -104.83465 104.834656 -104.83465l0 0c27.803864 0 54.46898 11.04505 74.12929 30.705359c19.660309 19.660309 30.705353 46.32541 30.705353 74.12929l0 0c0 57.898575 -46.936066 104.83464 -104.83464 104.83464l0 0c-57.898582 0 -104.834656 -46.936066 -104.834656 -104.83464z" fill-rule="evenodd"/><path fill="#ffffff" fill-opacity="0.0409" d="m33.29659 127.997375l0 0c0 -52.549675 42.599926 -95.149605 95.14961 -95.149605l0 0c25.235245 0 49.43692 10.024662 67.28093 27.868671c17.84401 17.844013 27.868668 42.04569 27.868668 67.28093l0 0c0 52.549683 -42.59993 95.14961 -95.1496 95.14961l0 0c-52.549683 0 -95.14961 -42.59993 -95.14961 -95.14961z" fill-rule="evenodd"/><path stroke="#000000" stroke-width="1.0" stroke-linejoin="round" stroke-linecap="butt" d="m33.29659 127.997375l0 0c0 -52.549675 42.599926 -95.149605 95.14961 -95.149605l0 0c25.235245 0 49.43692 10.024662 67.28093 27.868671c17.84401 17.844013 27.868668 42.04569 27.868668 67.28093l0 0c0 52.549683 -42.59993 95.14961 -95.1496 95.14961l0 0c-52.549683 0 -95.14961 -42.59993 -95.14961 -95.14961z" fill-rule="evenodd"/><path fill="#ffffff" fill-opacity="0.0409" d="m43.874016 128.0l0 0c0 -46.713722 37.868958 -84.58267 84.58268 -84.58267l0 0c22.432724 0 43.946655 8.911362 59.808975 24.773693c15.862335 15.862328 24.773697 37.37626 24.773697 59.808983l0 0c0 46.71373 -37.868958 84.58267 -84.58267 84.58267l0 0c-46.713722 0 -84.58268 -37.868942 -84.58268 -84.58267z" fill-rule="evenodd"/><path stroke="#000000" stroke-width="1.0" stroke-linejoin="round" stroke-linecap="butt" d="m43.874016 128.0l0 0c0 -46.713722 37.868958 -84.58267 84.58268 -84.58267l0 0c22.432724 0 43.946655 8.911362 59.808975 24.773693c15.862335 15.862328 24.773697 37.37626 24.773697 59.808983l0 0c0 46.71373 -37.868958 84.58267 -84.58267 84.58267l0 0c-46.713722 0 -84.58268 -37.868942 -84.58268 -84.58267z" fill-rule="evenodd"/><path fill="#ffffff" fill-opacity="0.0409" d="m60.574802 127.997375l0 0c0 -37.99893 30.804218 -68.80315 68.80316 -68.80315l0 0c18.247726 0 35.748077 7.2488823 48.65117 20.151974c12.903091 12.903099 20.151978 30.40345 20.151978 48.651176l0 0c0 37.99893 -30.80423 68.80315 -68.80315 68.80315l0 0c-37.99894 0 -68.80316 -30.804214 -68.80316 -68.80315z" fill-rule="evenodd"/><path stroke="#000000" stroke-width="1.0" stroke-linejoin="round" stroke-linecap="butt" d="m60.574802 127.997375l0 0c0 -37.99893 30.804218 -68.80315 68.80316 -68.80315l0 0c18.247726 0 35.748077 7.2488823 48.65117 20.151974c12.903091 12.903099 20.151978 30.40345 20.151978 48.651176l0 0c0 37.99893 -30.80423 68.80315 -68.80315 68.80315l0 0c-37.99894 0 -68.80316 -30.804214 -68.80316 -68.80315z" fill-rule="evenodd"/><path fill="#ffffff" fill-opacity="0.0409" d="m75.35171 128.01312l0 0c0 -29.327621 23.767685 -53.102364 53.086617 -53.102364l0 0c14.079437 0 27.58223 5.594696 37.537903 15.553322c9.955673 9.958626 15.548706 23.465424 15.548706 37.54904l0 0c0 29.327621 -23.767685 53.102356 -53.08661 53.102356l0 0c-29.318932 0 -53.086617 -23.774734 -53.086617 -53.102356z" fill-rule="evenodd"/><path stroke="#000000" stroke-width="1.0" stroke-linejoin="round" stroke-linecap="butt" d="m75.35171 128.01312l0 0c0 -29.327621 23.767685 -53.102364 53.086617 -53.102364l0 0c14.079437 0 27.58223 5.594696 37.537903 15.553322c9.955673 9.958626 15.548706 23.465424 15.548706 37.54904l0 0c0 29.327621 -23.767685 53.102356 -53.08661 53.102356l0 0c-29.318932 0 -53.086617 -23.774734 -53.086617 -53.102356z" fill-rule="evenodd"/><path fill="#ffffff" fill-opacity="0.0409" d="m79.385826 128.01575l0 0c0 -27.10109 21.962723 -49.07086 49.055122 -49.07086l0 0c13.010223 0 25.48758 5.169945 34.68721 14.37252c9.1996155 9.202576 14.367905 21.683937 14.367905 34.69834l0 0c0 27.10109 -21.962723 49.07086 -49.055115 49.07086l0 0c-27.0924 0 -49.055122 -21.969772 -49.055122 -49.07086z" fill-rule="evenodd"/><path stroke="#000000" stroke-width="1.0" stroke-linejoin="round" stroke-linecap="butt" d="m79.385826 128.01575l0 0c0 -27.10109 21.962723 -49.07086 49.055122 -49.07086l0 0c13.010223 0 25.48758 5.169945 34.68721 14.37252c9.1996155 9.202576 14.367905 21.683937 14.367905 34.69834l0 0c0 27.10109 -21.962723 49.07086 -49.055115 49.07086l0 0c-27.0924 0 -49.055122 -21.969772 -49.055122 -49.07086z" fill-rule="evenodd"/><path fill="#ffffff" fill-opacity="0.0409" d="m89.74016 128.0105l0 0c0 -21.378204 17.33046 -38.708664 38.708664 -38.708664l0 0c10.266174 0 20.111877 4.078224 27.371155 11.337509c7.2592773 7.2592773 11.337509 17.10498 11.337509 27.371155l0 0c0 21.378204 -17.33046 38.708664 -38.708664 38.708664l0 0c-21.378204 0 -38.708664 -17.33046 -38.708664 -38.708664z" fill-rule="evenodd"/><path stroke="#000000" stroke-width="1.0" stroke-linejoin="round" stroke-linecap="butt" d="m89.74016 128.0105l0 0c0 -21.378204 17.33046 -38.708664 38.708664 -38.708664l0 0c10.266174 0 20.111877 4.078224 27.371155 11.337509c7.2592773 7.2592773 11.337509 17.10498 11.337509 27.371155l0 0c0 21.378204 -17.33046 38.708664 -38.708664 38.708664l0 0c-21.378204 0 -38.708664 -17.33046 -38.708664 -38.708664z" fill-rule="evenodd"/><path fill="#ffffff" fill-opacity="0.0409" d="m98.979004 128.00525l0 0c0 -16.272827 13.191734 -29.46457 29.46457 -29.46457l0 0c7.8144836 0 15.308914 3.1042938 20.834595 8.629974c5.5256805 5.5256805 8.629974 13.020103 8.629974 20.834595l0 0c0 16.272827 -13.191742 29.46457 -29.46457 29.46457l0 0c-16.272835 0 -29.46457 -13.191742 -29.46457 -29.46457z" fill-rule="evenodd"/><path stroke="#000000" stroke-width="1.0" stroke-linejoin="round" stroke-linecap="butt" d="m98.979004 128.00525l0 0c0 -16.272827 13.191734 -29.46457 29.46457 -29.46457l0 0c7.8144836 0 15.308914 3.1042938 20.834595 8.629974c5.5256805 5.5256805 8.629974 13.020103 8.629974 20.834595l0 0c0 16.272827 -13.191742 29.46457 -29.46457 29.46457l0 0c-16.272835 0 -29.46457 -13.191742 -29.46457 -29.46457z" fill-rule="evenodd"/><path fill="#ffffff" fill-opacity="0.0409" d="m113.81628 128.00787l0 0c0 -8.07988 6.5500336 -14.629921 14.629921 -14.629921l0 0c3.8800964 0 7.6012726 1.541359 10.34491 4.2850037c2.7436523 2.7436447 4.2850037 6.464821 4.2850037 10.344917l0 0c0 8.07988 -6.5500336 14.629929 -14.629913 14.629929l0 0c-8.079887 0 -14.629921 -6.550049 -14.629921 -14.629929z" fill-rule="evenodd"/><path stroke="#000000" stroke-width="1.0" stroke-linejoin="round" stroke-linecap="butt" d="m113.81628 128.00787l0 0c0 -8.07988 6.5500336 -14.629921 14.629921 -14.629921l0 0c3.8800964 0 7.6012726 1.541359 10.34491 4.2850037c2.7436523 2.7436447 4.2850037 6.464821 4.2850037 10.344917l0 0c0 8.07988 -6.5500336 14.629929 -14.629913 14.629929l0 0c-8.079887 0 -14.629921 -6.550049 -14.629921 -14.629929z" fill-rule="evenodd"/></g></svg>